<?xml version="1.0" encoding="UTF-8"?>
<svg width="109px" height="22px" viewBox="0 0 109 22" version="1.1" xmlns="http://www.w3.org/2000/svg" xmlns:xlink="http://www.w3.org/1999/xlink">
    <!-- Generator: Sketch 48.2 (47327) - http://www.bohemiancoding.com/sketch -->
    <title>Group</title>
    <desc>Created with Sketch.</desc>
    <defs></defs>
    <g id="Desktop-HD" stroke="none" stroke-width="1" fill="none" fill-rule="evenodd" transform="translate(-120.000000, -30.000000)">
        <g id="Group" transform="translate(120.000000, 30.000000)">
            <path d="M17.248071,6.68813769 L15.1783024,14.3964479 L12.9360532,6.68813769 L8.91150333,6.68813769 L6.6692541,14.3964479 L4.59948559,6.68813769 L0,6.68813769 L4.59948559,21.0693134 L8.62403548,21.0693134 L10.9237783,13.3897656 L13.2235211,21.0693134 L17.248071,21.0693134 L21.8475565,6.68813769 L17.248071,6.68813769 Z M33.0828878,6.28546476 C31.1856,6.28546476 29.7482607,6.9757612 28.9720975,8.0399682 L28.9720975,0.935667392 L24.6600798,0.935667392 L24.6600798,21.0693134 L28.9720975,21.0693134 L28.9720975,13.2171915 C28.9720975,11.1750645 30.0644754,10.2546693 31.6455485,10.2546693 C33.0253942,10.2546693 34.1465188,11.0887775 34.1465188,12.8720433 L34.1465188,21.0693134 L38.4585366,21.0693134 L38.4585366,12.2392715 C38.4585366,8.35635407 35.9863131,6.28546476 33.0828878,6.28546476 Z M52.9422545,6.68813769 L57.2542722,6.68813769 L57.2542722,21.0693134 L52.9422545,21.0693134 L52.9422545,19.7174829 C51.9936106,20.8104523 50.5850181,21.4719863 48.6589836,21.4719863 C44.8931547,21.4719863 41.788502,18.1643159 41.788502,13.8787256 C41.788502,9.59313518 44.8931547,6.28546476 48.6589836,6.28546476 C50.5850181,6.28546476 51.9936106,6.94699885 52.9422545,8.0399682 L52.9422545,6.68813769 Z M49.5213871,17.3877324 C51.5049153,17.3877324 52.9422545,16.0359019 52.9422545,13.8787256 C52.9422545,11.7215492 51.5049153,10.3697187 49.5213871,10.3697187 C47.5378589,10.3697187 46.1005197,11.7215492 46.1005197,13.8787256 C46.1005197,16.0359019 47.5378589,17.3877324 49.5213871,17.3877324 Z M61.5041348,21.0693134 L65.8161525,21.0693134 L65.8161525,0.850157698 L61.5041348,0.850157698 L61.5041348,21.0693134 Z M73.9180842,15.6044666 C74.4642731,17.1001089 75.7866252,17.6178312 77.3676984,17.6178312 C78.5463166,17.6178312 79.552454,17.1576336 80.1273897,16.5248619 L83.5770039,18.5094641 C82.1684115,20.465304 80.0411494,21.4719863 77.3102048,21.4719863 C72.3945046,21.4719863 69.3473454,18.1643159 69.3473454,13.8787256 C69.3473454,9.59313518 72.4519982,6.28546476 76.9939902,6.28546476 C81.1910208,6.28546476 84.2956735,9.53561048 84.2956735,13.8787256 C84.2956735,14.4827349 84.23818,15.057982 84.1231928,15.6044666 L73.9180842,15.6044666 Z M73.8318438,12.3830833 L80.0124026,12.3830833 C79.552454,10.7148669 78.2588487,10.1108575 76.9652434,10.1108575 C75.3266766,10.1108575 74.2342988,10.9162034 73.8318438,12.3830833 Z M106.180535,21.0675806 L99.5129248,11.6011554 L107.681118,1.94980094 C108.39695,1.10398947 108.092038,0.524216682 106.981744,0.657035292 L103.537455,1.06905756 C101.891345,1.26597306 99.7012135,2.46551217 98.648294,3.74510046 L97.4598022,5.18944672 C97.1103643,5.61411038 96.4483883,5.72705152 95.9754473,5.43817116 L92.7558366,3.47157846 C91.8166774,2.89792414 90.1644913,2.43288543 89.063286,2.43288543 L86.6405252,2.43288543 C85.540345,2.43288543 85.2567215,3.0922448 86.0073303,3.90592662 L93.1060591,11.6011554 L86.4384488,21.0675806 L92.8453145,21.0675806 L96.3094919,16.148021 L99.7736694,21.0675806 L106.180535,21.0675806 Z" id="whalex" fill="#FFFFFF"></path>
            <path d="M106.180535,21.0675806 L99.5129248,11.6011554 L107.681118,1.94980094 C108.39695,1.10398947 108.092038,0.524216682 106.981744,0.657035292 L103.537455,1.06905756 C101.891345,1.26597306 99.7012135,2.46551217 98.648294,3.74510046 L97.4598022,5.18944672 C97.1103643,5.61411038 96.4483883,5.72705152 95.9754473,5.43817116 L92.7558366,3.47157846 C91.8166774,2.89792414 90.1644913,2.43288543 89.063286,2.43288543 L86.6405252,2.43288543 C85.540345,2.43288543 85.2567215,3.0922448 86.0073303,3.90592662 L93.1060591,11.6011554 L86.4384488,21.0675806 L92.8453145,21.0675806 L96.3094919,16.148021 L99.7736694,21.0675806 L106.180535,21.0675806 Z" id="Path" fill="#00DFC5"></path>
        </g>
    </g>
</svg>